inDegrees=yes
name=ik_20250225_orientations
DataType=double
version=3
OpenSimVersion=4.5
endheader
time	pelvis_tilt	pelvis_list	pelvis_rotation	pelvis_tx	pelvis_ty	pelvis_tz	hip_flexion_r	hip_adduction_r	hip_rotation_r	knee_angle_r_beta	knee_angle_r	ankle_angle_r	subtalar_angle_r	mtp_angle_r	hip_flexion_l	hip_adduction_l	hip_rotation_l	knee_angle_l_beta	knee_angle_l	ankle_angle_l	subtalar_angle_l	mtp_angle_l	flex_extension	lat_bending	axial_rotation	L4_L5_IVDjnt_r3	L4_L5_IVD_bendjnt_r1	L4_L5_IVD_rotjnt_r2	L3_L4_IVDjnt_r3	L3_L4_IVD_bendjnt_r1	L3_L4_IVD_rotjnt_r2	L2_L3_IVDjnt_r3	L2_L3_IVD_bendjnt_r1	L2_L3_IVD_rotjnt_r2	L1_L2_IVDjnt_r3	L1_L2_IVD_bendjnt_r1	L1_L2_IVD_rotjnt_r2	Torso_Rot	Abs_r3	Abs_t1	Abs_t2	LB_wrapjnt_r3	LB_wrapjnt_t1	LB_wrapjnt_t2	arm_flex_r	arm_add_r	arm_rot_r	elbow_flex_r	pro_sup_r	wrist_flex_r	wrist_dev_r	arm_flex_l	arm_add_l	arm_rot_l	elbow_flex_l	pro_sup_l	wrist_flex_l	wrist_dev_l
0	0.01911879105997251	-0.03825840232678963	89.54360413156652	-3.367454991087304e-35	5.965334408854792e-09	-2.476504494690367e-31	0.04252142353786905	0.02037641123228242	0.9515888799201196	-7.016544470747934e-05	0.004020183849397106	-0.02241115760900629	-3.312037350972112e-27	5.799982637073429e-26	0.08171935752768571	-0.02214736465711512	-0.9533669577755909	0.000968693145104004	-0.05550202885771327	-0.009002314876451313	7.013321925566367e-27	4.013776209130099e-28	-5.01533884865928e-08	0.000703093231205948	0.04542696819641006	-4.137951583528967e-07	0.007294903843515953	0.1098950527595994	-5.883506228955822e-07	0.00988298313925863	0.1098950527595994	-7.086759330741298e-07	0.0100762290295344	0.08675900799248032	-1.475422413176285e-08	0.007570991996960216	0.07519131700441116	0.5352461843777766	-1.847300152762446e-06	1.012487034780879e-27	-2.300624429892634e-29	-1.72414649313707e-06	-1.858337294569109e-09	-6.194457648563698e-10	-0.4482311632210361	-0.158987882094397	-0.5674235436788363	0.7635776616491947	0.7607753843616886	1.413829361094192e-31	-7.448466877959642e-32	-0.4556705569118916	-0.1177241089382502	-0.4892011742398055	0.7696671617933454	0.7924144982424659	1.648318133178106e-31	-8.620910738379216e-32
0.025	0.01674064259238982	-0.04704942760906559	89.57568826016298	0	5.965334408854792e-09	0	0.04106501923933298	0.00048524536199055	0.9089542551430094	0.0001639045515689799	-0.009391039047886905	0.01167249870220044	0	0	0.05346208623689643	-0.003830995549101748	-0.9128136531617809	0.0004908181420513885	-0.02812180804799708	0.0232677864739231	0	0	-5.01533884865928e-08	-0.0005042360664185264	0.04488111949548169	-4.137951583528967e-07	-0.00523167263699499	0.1085745580365547	-5.883506228955822e-07	-0.007087760657393873	0.1085745580365547	-7.086759330741299e-07	-0.007226350453506405	0.08571651509262901	-1.475422413176284e-08	-0.005429674265084114	0.07428782103412111	0.5288146868330524	-1.847300152762446e-06	0	0	-1.72414649313707e-06	-1.858337294569109e-09	-6.194457648563698e-10	-0.4964792319278035	-0.1266107195814647	-0.6473446102115662	0.7811483282211276	0.6906239325497907	0	0	-0.3737038921528699	-0.03778939835303098	-0.1672023685952365	0.9212239504049844	0.7220315628476719	0	0
0.05	0.006966488028701397	-0.0784635608121682	89.58643638226991	0	5.965334408854792e-09	0	0.04639571526880912	-0.02403054093463242	0.9115776915012288	3.182592692552264e-05	-0.001823491291924215	0.02229014235967638	0	0	0.03216597181431811	0.01887291251421235	-0.9018784190690187	-0.0004207087836427043	0.02410483770680944	0.02304598981276369	0	0	-5.01533884865928e-08	-0.00102699486430344	0.04619792250972569	-4.137951583528967e-07	-0.01065552682114236	0.1117601137201008	-5.883506228955822e-07	-0.01443588485499798	0.1117601137201008	-7.086759330741298e-07	-0.01471815543882247	0.08823142039609025	-1.475422413176284e-08	-0.01105880351774075	0.0764674107537848	0.5443300033275165	-1.847300152762446e-06	0	0	-1.72414649313707e-06	-1.858337294569109e-09	-6.194457648563698e-10	-0.5353912313421632	-0.1482723066354052	-0.7043896508299725	0.7623402121246461	0.6483695770329236	0	0	-0.1706736260051549	-0.0166816034536551	-0.261035149375385	1.185307186367259	0.4584848346045383	0	0
0.07500000000000001	-0.0003196286379494675	-0.08485641448636487	89.6117458708412	0	5.965334408854792e-09	0	0.03719466253215877	-0.04747476362741956	0.8887771676270284	-0.0001237249889882477	0.007088919689329176	0.0196005370790795	1.006956951989406e-31	4.965644585306429e-32	0.004814598732925023	0.04067940005433954	-0.8771102983937042	-0.001314429143048804	0.07531124236569403	-0.0002806920670705348	1.254342512434176e-31	-1.268998060689421e-31	-5.01533884865928e-08	-0.00137003542510628	0.04746125429535014	-4.137951583528967e-07	-0.01421472465496328	0.1148163140069835	-5.883506228955822e-07	-0.01925781163230646	0.1148163140069835	-7.086759330741298e-07	-0.01963436726344734	0.09064420330540199	-1.475422413176285e-08	-0.01475270530088867	0.07855849419047656	0.5592152916200355	-1.847300152762446e-06	3.851859888774472e-34	1.781485198558193e-32	-1.72414649313707e-06	-1.858337294569109e-09	-6.194457648563698e-10	-0.5966882600172467	-0.196933808043153	-0.7466139560574713	0.7014026925246648	0.6737178613327471	-1.659929422328861e-32	-4.416963303155023e-32	-0.02801817742409931	-0.061013544319811	-0.254001964213512	1.340269815497887	0.4182108505707125	1.985826788585652e-31	1.106260081580503e-32
0.1	-0.01940526106500592	-0.1205244542473363	89.58941521274421	0	5.965334408854792e-09	0	0.05379657243804249	-0.08369659798394713	0.8928866076982698	-0.0007659267167550317	0.04388436828637535	-0.03490766428458243	0	0	-0.05024546768793452	0.07051756339041304	-0.8918249362813307	-0.003571557480013823	0.2046351698931719	-0.05084398159170457	0	0	-5.015338848659281e-08	-0.00212404740626309	0.0467954035436102	-4.137951583528967e-07	-0.02203793309342749	0.1132055152590657	-5.883506228955822e-07	-0.02985653078622419	0.1132055152590657	-7.086759330741299e-07	-0.03044032737789265	0.08937252366254682	-1.475422413176285e-08	-0.02287199648672165	0.07745636924268708	0.5513698621673597	-1.847300152762446e-06	0	0	-1.72414649313707e-06	-1.858337294569109e-09	-6.194457648563698e-10	-0.616435298682932	-0.2172108190450748	-0.7664091550922716	0.6497885316235857	0.6710914801295526	0	0	0.03567775023415749	-0.1274613797958629	-0.1125501413367533	1.41778549801737	0.4330933466124183	0	0
0.125	-0.01602650455767213	-0.140220842952602	89.59381828468965	0	5.965334408854792e-09	0	0.04859245844433732	-0.1015225426988772	0.874102751384445	-0.001293053492820019	0.07408650782323679	-0.04076706983624629	0	0	-0.07976974674560475	0.08209040020933821	-0.8735820857100176	-0.004765865090420255	0.2730639554098151	-0.07251394781937148	0	0	-5.01533884865928e-08	-0.002338590335503277	0.04763858065172383	-4.137951583528967e-07	-0.02426391105716125	0.1152452946337578	-5.883506228955821e-07	-0.03287223917057874	0.1152452946337578	-7.086759330741297e-07	-0.03351500310472739	0.09098287126808408	-1.475422413176285e-08	-0.02518222040609746	0.07885200711473078	0.561304650857664	-1.847300152447986e-06	0	0	-1.72414649313707e-06	-1.858337294569109e-09	-6.194457648563698e-10	-0.6564881860939131	-0.2244407869494738	-0.7879045542503311	0.6165743658362567	0.6504217839579252	0	0	0.08591848215182513	-0.1981799540237211	-0.1544131184214822	1.621257160570753	0.3872561690476997	0	0
